:FULLY-SPECIFIED
:FORCE-ALL-JOINTS-BE-3DOF
:DEGREES
713
root 5.03159 18.9302 7.31891 176.241 -85.9361 -156.48
lfemur -38.8746 1.99866 13.4326
ltibia 85.269 -0 0
lfoot 0.900416 -2.21668 0.31405
ltoes 26.7703 -0 0
rfemur -14.3815 -10.6478 4.45922
rtibia 44.1172 -0 0
rfoot 25.1949 4.84493 0.0345251
rtoes 6.34652 -0 0
lowerback 1.7885 0.932453 -1.24352
upperback -2.16837 1.12367 -1.86046
thorax -3.07724 0.559837 -1.19888
lowerneck -7.0093 -5.89153 -0.411949
upperneck 1.45986 -8.04132 4.16704
head 1.85652 -3.94061 1.09183
lclavicle -3.90224e-14 -4.60597e-15 -3.10215e-30
lhumerus -5.4627 -26.2328 29.146
lradius 65.695 -0 0
lwrist 27.7853 0 0
lhand -23.2108 -5.05527 0.000255968
lfingers 7.12502 -0 0
lthumb 3.23957 24.8998 0.00024689
rclavicle -3.90224e-14 -4.60597e-15 -3.10215e-30
rhumerus -3.81401 -5.90152 -30.0811
rradius 97.2922 -0 0
rwrist -7.79906 0 0
rhand -33.4954 -37.3114 0.131671
rfingers 7.12502 -0 0
rthumb -6.69188 -67.168 0.125304
714
root 5.00926 18.9026 7.53303 -177.357 -83.6897 -162.689
lfemur -38.3292 1.37667 12.771
ltibia 82.9148 -0 0
lfoot 0.593689 -2.51794 0.322118
ltoes 26.2199 -0 0
rfemur -14.875 -11.362 4.10934
rtibia 47.0583 -0 0
rfoot 25.2702 4.97965 0.0354106
rtoes 7.05639 -0 0
lowerback 1.75637 1.19083 -1.15128
upperback -2.1784 1.47392 -1.82571
thorax -3.06026 0.73316 -1.22724
lowerneck -7.0382 -5.96445 -0.436325
upperneck 1.33397 -8.13282 4.1235
head 1.82152 -3.99023 1.07972
lclavicle -3.96891e-14 -5.97322e-15 -3.18169e-30
lhumerus -7.61407 -26.2146 30.3367
lradius 65.0451 -0 0
lwrist 27.5563 0 0
lhand -23.2093 -5.00521 0.000262532
lfingers 7.12502 -0 0
lthumb 3.24102 24.9499 0.000253221
rclavicle -3.96891e-14 -5.97322e-15 -3.18169e-30
rhumerus -2.11734 -5.32719 -31.0767
rradius 97.0828 -0 0
rwrist -7.77194 0 0
rhand -33.3528 -37.0398 0.135051
rfingers 7.12502 -0 0
rthumb -6.55426 -66.9003 0.128519
715
root 4.98693 18.8749 7.74715 -174.281 -81.4072 -165.571
lfemur -37.7768 0.761053 12.1036
ltibia 80.5606 -0 0
lfoot 0.286924 -2.81925 0.328572
ltoes 25.6696 -0 0
rfemur -15.3653 -12.0791 3.76486
rtibia 49.9995 -0 0
rfoot 25.3455 5.11437 0.036119
rtoes 7.76627 -0 0
lowerback 1.72466 1.44927 -1.05918
upperback -2.18821 1.82418 -1.79101
thorax -3.04336 0.906491 -1.25554
lowerneck -7.06708 -6.03738 -0.460668
upperneck 1.20813 -8.22442 4.08015
head 1.78652 -4.03986 1.06764
lclavicle -4.03558e-14 -7.34047e-15 -3.24532e-30
lhumerus -9.76386 -26.1563 31.5254
lradius 64.3952 -0 0
lwrist 27.3273 0 0
lhand -23.2078 -4.95515 0.000267783
lfingers 7.12502 -0 0
lthumb 3.24247 24.9999 0.000258286
rclavicle -4.03558e-14 -7.34047e-15 -3.24532e-30
rhumerus -0.432475 -4.72388 -32.0538
rradius 96.8734 -0 0
rwrist -7.74482 0 0
rhand -33.2102 -36.7682 0.137755
rfingers 7.12502 -0 0
rthumb -6.41663 -66.6326 0.131092
716
root 4.96458 18.8473 7.96127 -172.456 -79.1112 -167.202
lfemur -37.2173 0.151934 11.4304
ltibia 78.2064 -0 0
lfoot -0.019872 -3.12059 0.333414
ltoes 25.1193 -0 0
rfemur -15.8525 -12.799 3.42572
rtibia 52.9406 -0 0
rfoot 25.4208 5.2491 0.0366503
rtoes 8.47614 -0 0
lowerback 1.69336 1.70775 -0.967202
upperback -2.19781 2.17444 -1.75636
thorax -3.02654 1.07983 -1.28379
lowerneck -7.09593 -6.11032 -0.484977
upperneck 1.08233 -8.31611 4.03699
head 1.75153 -4.0895 1.05558
lclavicle -4.10224e-14 -8.70772e-15 -3.29305e-30
lhumerus -11.9104 -26.0581 32.7101
lradius 63.7453 -0 0
lwrist 27.0982 0 0
lhand -23.2063 -4.90509 0.000271721
lfingers 7.12502 -0 0
lthumb 3.24392 25.05 0.000262085
rclavicle -4.10224e-14 -8.70772e-15 -3.29305e-30
rhumerus 1.24044 -4.0923 -33.012
rradius 96.664 -0 0
rwrist -7.7177 0 0
rhand -33.0677 -36.4966 0.139782
rfingers 7.12502 -0 0
rthumb -6.27899 -66.3649 0.133022
717
root 4.94224 18.8196 8.1754 -171.231 -76.8089 -168.232
lfemur -36.6507 -0.450541 10.7513
ltibia 75.8522 -0 0
lfoot -0.326689 -3.42195 0.336641
ltoes 24.5689 -0 0
rfemur -16.3368 -13.5217 3.0919
rtibia 55.8818 -0 0
rfoot 25.4961 5.38382 0.0370044
rtoes 9.18601 -0 0
lowerback 1.66247 1.96629 -0.875355
upperback -2.20721 2.52471 -1.72177
thorax -3.00981 1.25318 -1.312
lowerneck -7.12475 -6.18328 -0.509253
upperneck 0.95657 -8.4079 3.99402
head 1.71655 -4.13914 1.04356
lclavicle -4.16891e-14 -1.0075e-14 -3.32486e-30
lhumerus -14.0521 -25.9202 33.8886
lradius 63.0954 -0 0
lwrist 26.8692 0 0
lhand -23.2048 -4.85503 0.000274347
lfingers 7.12502 -0 0
lthumb 3.24537 25.1 0.000264617
rclavicle -4.16891e-14 -1.0075e-14 -3.32486e-30
rhumerus 2.9013 -3.43321 -33.9505
rradius 96.4546 -0 0
rwrist -7.69058 0 0
rhand -32.9251 -36.225 0.141134
rfingers 7.12502 -0 0
rthumb -6.14135 -66.0971 0.134308
718
root 4.91988 18.792 8.38952 -170.34 -74.5031 -168.927
lfemur -36.0769 -1.04623 10.0661
ltibia 73.4979 -0 0
lfoot -0.633518 -3.72332 0.338255
ltoes 24.0186 -0 0
rfemur -16.8183 -14.2471 2.76335
rtibia 58.8229 -0 0
rfoot 25.5714 5.51855 0.0371815
rtoes 9.89588 -0 0
lowerback 1.63199 2.22487 -0.783634
upperback -2.21639 2.87499 -1.68722
thorax -2.99317 1.42653 -1.34015
lowerneck -7.15355 -6.25625 -0.533496
upperneck 0.830849 -8.49978 3.95125
head 1.68158 -4.1888 1.03156
lclavicle -4.23557e-14 -1.14422e-14 -3.34077e-30
lhumerus -16.1873 -25.7429 35.0591
lradius 62.4455 -0 0
lwrist 26.6402 0 0
lhand -23.2033 -4.80497 0.000275659
lfingers 7.12502 -0 0
lthumb 3.24682 25.15 0.000265883
rclavicle -4.23557e-14 -1.14422e-14 -3.34077e-30
rhumerus 4.55008 -2.74734 -34.869
rradius 96.2452 -0 0
rwrist -7.66346 0 0
rhand -32.7825 -35.9534 0.14181
rfingers 7.12502 -0 0
rthumb -6.0037 -65.8294 0.134952
719
root 4.89752 18.7643 8.60364 -169.653 -72.1952 -169.417
lfemur -35.4958 -1.63498 9.37488
ltibia 71.1438 -0 0
lfoot -0.940352 -4.02469 0.338255
ltoes 23.4682 -0 0
rfemur -17.297 -14.9752 2.44002
rtibia 61.7641 -0 0
rfoot 25.6468 5.65327 0.0371815
rtoes 10.6058 -0 0
lowerback 1.60192 2.4835 -0.692032
upperback -2.22537 3.22526 -1.65271
thorax -2.9766 1.5999 -1.36826
lowerneck -7.18232 -6.32923 -0.557704
upperneck 0.705166 -8.59175 3.90868
head 1.64662 -4.23846 1.0196
lclavicle -4.30224e-14 -1.28095e-14 -3.34077e-30
lhumerus -18.3145 -25.5264 36.2194
lradius 61.7957 -0 0
lwrist 26.4112 0 0
lhand -23.2017 -4.75492 0.000275659
lfingers 7.12502 -0 0
lthumb 3.24826 25.2001 0.000265883
rclavicle -4.30224e-14 -1.28095e-14 -3.34077e-30
rhumerus 6.18681 -2.03546 -35.7668
rradius 96.0359 -0 0
rwrist -7.63634 0 0
rhand -32.6399 -35.6817 0.14181
rfingers 7.12502 -0 0
rthumb -5.86604 -65.5616 0.134952
720
root 4.87515 18.7367 8.81776 -169.1 -69.8858 -169.772
lfemur -34.9075 -2.21664 8.67745
ltibia 68.7895 -0 0
lfoot -1.24718 -4.32606 0.336641
ltoes 22.9179 -0 0
rfemur -17.7731 -15.7059 2.1219
rtibia 64.7052 -0 0
rfoot 25.7221 5.788 0.0370044
rtoes 11.3156 -0 0
lowerback 1.57225 2.74218 -0.600548
upperback -2.23414 3.57555 -1.61825
thorax -2.96012 1.77327 -1.39632
lowerneck -7.21106 -6.40222 -0.58188
upperneck 0.579523 -8.68381 3.86629
head 1.61166 -4.28812 1.00766
lclavicle -4.3689e-14 -1.41767e-14 -3.32486e-30
lhumerus -20.4323 -25.2714 37.3679
lradius 61.1458 -0 0
lwrist 26.1822 0 0
lhand -23.2002 -4.70486 0.000274347
lfingers 7.12502 -0 0
lthumb 3.24971 25.2501 0.000264617
rclavicle -4.3689e-14 -1.41767e-14 -3.32486e-30
rhumerus 7.81159 -1.29835 -36.6437
rradius 95.8265 -0 0
rwrist -7.60922 0 0
rhand -32.4973 -35.4101 0.141134
rfingers 7.12502 -0 0
rthumb -5.72839 -65.2939 0.134308
721
root 4.85278 18.7091 9.03189 -168.638 -67.5756 -170.034
lfemur -34.3119 -2.79108 7.97376
ltibia 66.4353 -0 0
lfoot -1.554 -4.62742 0.333414
ltoes 22.3675 -0 0
rfemur -18.2468 -16.4391 1.80895
rtibia 67.6464 -0 0
rfoot 25.7974 5.92272 0.0366503
rtoes 12.0255 -0 0
lowerback 1.54299 3.00091 -0.509178
upperback -2.2427 3.92584 -1.58383
thorax -2.94373 1.94665 -1.42433
lowerneck -7.23977 -6.47523 -0.606022
upperneck 0.453917 -8.77597 3.8241
head 1.57672 -4.3378 0.995755
lclavicle -4.43557e-14 -1.5544e-14 -3.29305e-30
lhumerus -22.5393 -24.9783 38.5025
lradius 60.4959 -0 0
lwrist 25.9532 0 0
lhand -23.1987 -4.6548 0.000271721
lfingers 7.12502 -0 0
lthumb 3.25116 25.3001 0.000262085
rclavicle -4.43557e-14 -1.5544e-14 -3.29305e-30
rhumerus 9.42455 -0.536764 -37.499
rradius 95.6171 -0 0
rwrist -7.5821 0 0
rhand -32.3547 -35.1385 0.139782
rfingers 7.12502 -0 0
rthumb -5.59075 -65.0261 0.133022
